HIERARCHY
ROOT Hips
{
  OFFSET 0 0 0
  CHANNELS 6 Xposition Yposition Zposition Zrotation Yrotation Xrotation
  JOINT LeftThigh
  {
    OFFSET 8.409438 0 -5.917753
    CHANNELS 3 Zrotation Yrotation Xrotation
    JOINT LeftLeg
    {
      OFFSET 0 0 -42.358652
      CHANNELS 3 Zrotation Yrotation Xrotation
      JOINT LeftFoot
      {
        OFFSET 0 0 -39.357303
        CHANNELS 3 Zrotation Yrotation Xrotation
      }
    }
  }
  JOINT RightThigh
  {
    OFFSET -8.409438 0 -5.917753
    CHANNELS 3 Zrotation Yrotation Xrotation
    JOINT RightLeg
    {
      OFFSET 0 0 -42.358652
      CHANNELS 3 Zrotation Yrotation Xrotation
      JOINT RightFoot
      {
        OFFSET 0 0 -39.357303
        CHANNELS 3 Zrotation Yrotation Xrotation
      }
    }
  }
  JOINT SpineLow
  {
    OFFSET 0 0 4.719101
    CHANNELS 3 Zrotation Yrotation Xrotation
    JOINT SpineMid
    {
      OFFSET 0 0 12.899191
      CHANNELS 3 Zrotation Yrotation Xrotation
      JOINT Chest
      {
        OFFSET 0 0 12.899191
        CHANNELS 3 Zrotation Yrotation Xrotation
        JOINT LeftShoulder
        {
          OFFSET 7.550562 1.41573 9.438202
          CHANNELS 3 Zrotation Yrotation Xrotation
          JOINT LeftArm
          {
            OFFSET 9.155056 0 4.247191
            CHANNELS 3 Zrotation Yrotation Xrotation
            JOINT LeftForearm
            {
              OFFSET 0 0 25.771955
              CHANNELS 3 Zrotation Yrotation Xrotation
              JOINT LeftHand
              {
                OFFSET 0 0 25.197169
                CHANNELS 3 Zrotation Yrotation Xrotation
              }
            }
          }
        }
        JOINT RightShoulder
        {
          OFFSET -7.550562 1.41573 9.438202
          CHANNELS 3 Zrotation Yrotation Xrotation
          JOINT RightArm
          {
            OFFSET -9.155056 0 4.247191
            CHANNELS 3 Zrotation Yrotation Xrotation
            JOINT RightForearm
            {
              OFFSET 0 0 -25.771955
              CHANNELS 3 Zrotation Yrotation Xrotation
              JOINT RightHand
              {
                OFFSET 0 0 -25.197169
                CHANNELS 3 Zrotation Yrotation Xrotation
              }
            }
          }
        }
        JOINT Neck
        {
          OFFSET 0 0 15.101124
          CHANNELS 3 Zrotation Yrotation Xrotation
          JOINT Head
          {
            OFFSET 0 0 11.325843
            CHANNELS 3 Zrotation Yrotation Xrotation
            End Site
            {
              OFFSET 0 0 14.157303
            }
          }
        }
      }
    }
  }
}
MOTION
Frames: 12
Frame Time: 0.0
0.0  101.685394  0.0  -0.684698  10.89556  -98.733405  13.824684  -24.630622  2.667099  -12.353443  17.53516  23.127161  -1.167931  3.76132  0.232009  -18.376978  12.618167  -4.132145  3.3427  3.511265  23.28358  2.134296  1.96277  -2.310567  0.843785  -0.742436  3.058104  2.209065  -2.131969  8.334591  2.209065  -2.131969  8.334592  3.211263  19.530665  12.520663  148.980938  14.478101  174.301815  -25.662148  23.535612  92.725682  28.664541  -35.813644  18.174665  1.953999  -6.905276  12.162066  69.860124  44.756086  31.847617  2.040948  0.871358  -22.536337  73.022297  -9.746045  20.053895  -6.007098  -0.241587  1.232525  -4.504851  -0.193329  0.922123  
0.0  101.685394  0.0  -0.903895  11.43193  -98.809793  11.80651  -24.322519  2.94243  -11.87263  17.33143  23.259276  -0.514729  3.832356  0.391881  -19.60527  12.527943  -4.174816  3.826137  3.512611  23.144286  2.211371  1.878224  -2.275082  0.645672  -0.78664  2.939764  1.66691  -2.224805  8.016665  1.66691  -2.224805  8.016665  4.665082  19.80188  13.768595  149.119596  14.498093  174.770794  -25.683564  24.816716  92.396226  28.577977  -34.950533  20.166453  2.822446  -7.235372  12.610816  62.278344  45.898609  27.253023  7.451606  2.266019  -23.073454  73.805797  -9.426909  20.690124  -5.770042  -0.195224  1.474181  -4.327086  -0.160355  1.103908  
0.0  101.685394  0.0  -0.874922  11.587806  -99.404615  9.990172  -23.899998  3.744159  -11.208763  17.006884  23.534705  0.047593  3.907751  0.584  -20.279826  12.874274  -3.707732  4.328709  3.366012  22.952441  2.324078  1.782859  -2.205493  0.56814  -0.872918  2.986791  1.44311  -2.451822  8.146497  1.44311  -2.451822  8.146497  5.329129  20.533082  14.261447  149.222913  14.862562  174.882555  -25.623208  24.391025  92.473629  28.590172  -33.67308  21.82497  3.93692  -7.25285  12.831192  59.104973  46.463637  26.172075  10.268198  3.54729  -23.371768  74.004306  -9.524636  20.217023  -5.748151  -0.01157  1.269644  -4.311111  -0.020622  0.952224  
0.0  101.685394  0.0  -0.72702  11.256592  -99.85732  9.094596  -23.498661  4.363182  -10.546454  16.712023  23.875421  0.467183  3.939202  0.766444  -20.435425  13.219586  -3.334817  4.814948  3.220872  22.74102  2.458981  1.697143  -2.149379  0.605107  -0.944198  3.152912  1.528523  -2.654479  8.598165  1.528523  -2.654479  8.598165  5.257127  21.221748  13.433463  149.220782  15.34693  174.770715  -25.353224  22.650397  92.860011  28.590609  -32.838534  22.603252  4.325947  -6.752276  12.381324  61.786405  45.951081  28.501582  9.477418  4.113909  -23.363786  74.187306  -9.556062  19.298348  -5.513363  0.047114  0.65817  -4.135078  0.029401  0.4941  
0.0  101.685394  0.0  -0.586718  10.732966  -99.874808  8.872365  -23.165959  4.386152  -9.979854  16.443193  24.195356  0.655893  3.908258  0.893067  -20.172037  13.328612  -3.230658  5.043866  3.118062  22.501529  2.497935  1.635925  -2.127948  0.655718  -0.949625  3.307473  1.659565  -2.679513  9.018665  1.659565  -2.679513  9.018665  5.067  21.576182  12.013171  149.159757  16.099987  174.684812  -25.054364  20.545175  93.161454  28.669783  -32.365325  22.828909  5.053899  -6.330748  12.061836  66.688432  45.042557  31.841352  6.609602  3.997547  -23.255501  73.898906  -9.629599  18.677185  -5.271021  -0.13607  -0.345229  -3.953342  -0.099084  -0.260118  
0.0  101.685394  0.0  -0.513367  10.221974  -99.680131  9.078146  -23.003729  4.127183  -9.372744  16.155526  24.553265  0.756287  3.889239  1.044145  -19.997085  13.259998  -3.400452  5.004207  3.014645  22.29688  2.717401  1.681927  -2.073535  0.739294  -0.927223  3.398617  1.88694  -2.632248  9.264925  1.88694  -2.632248  9.264925  4.338974  21.643569  10.465323  149.310309  16.998707  174.608133  -24.71636  18.732102  93.165122  28.351572  -31.932831  22.957627  5.847009  -6.009174  12.025711  71.136759  44.12235  34.625205  3.226199  3.455347  -22.953616  73.731027  -9.499392  18.088681  -5.127258  -0.443137  -1.071579  -3.846215  -0.32339  -0.807465  
0.0  101.685394  0.0  -0.444384  9.636832  -99.619094  9.566637  -22.980966  3.981698  -8.976335  15.917215  24.765352  0.550757  3.864846  1.101697  -19.339138  13.189888  -3.344601  4.957334  2.959194  22.179342  2.687216  1.695016  -2.062902  0.875506  -0.906533  3.409601  2.261026  -2.595202  9.28995  2.261027  -2.595202  9.289951  3.57257  21.512393  9.60186  149.283414  17.921184  174.534889  -24.324561  17.669807  93.08964  28.139746  -31.633872  22.866321  6.189642  -6.072308  12.526248  74.423294  43.542994  36.791582  0.810266  2.882147  -22.879519  73.874428  -9.497719  17.673094  -5.137611  -0.718875  -1.301571  -3.854709  -0.528261  -0.982291  
0.0  101.685394  0.0  -0.427126  9.12623  -99.654557  10.162689  -23.106018  3.926139  -8.789747  15.76697  24.857312  0.435131  3.848096  1.190581  -18.716495  13.101331  -3.24415  4.817603  2.910934  22.124059  2.687686  1.735969  -2.044631  0.986625  -0.895611  3.369873  2.567341  -2.579481  9.17717  2.567342  -2.579481  9.177171  2.890321  21.351971  9.30042  149.158298  18.79401  174.502349  -24.104013  17.308983  92.953106  28.323062  -31.430188  22.615971  6.485872  -6.291611  13.185067  75.94316  43.344699  37.857622  -0.195303  2.630124  -22.683926  74.049965  -9.326271  17.126691  -5.102804  -0.92428  -1.191258  -3.828839  -0.683323  -0.901216  
0.0  101.685394  0.0  -0.3726  8.819309  -99.743508  10.70895  -23.238149  3.961674  -8.886312  15.698653  24.809281  0.271659  3.852888  1.210689  -18.107032  13.081864  -3.068695  4.616198  2.892286  22.097853  2.641326  1.792157  -2.019723  0.997247  -0.904978  3.360793  2.595415  -2.60615  9.151612  2.595415  -2.606151  9.151612  2.440145  21.472653  8.984747  148.954563  19.504106  174.429459  -24.072702  17.201902  92.722324  28.735705  -31.39004  22.298083  6.993481  -6.196531  13.4686  75.874011  43.419717  37.793647  0.082666  2.733758  -22.494235  74.203871  -9.089875  16.593148  -4.835669  -0.923168  -1.096602  -3.628343  -0.683753  -0.829801  
0.0  101.685394  0.0  -0.395164  8.650892  -99.844084  11.241316  -23.464047  4.027204  -9.073801  15.684798  24.715633  0.184732  3.843556  1.219092  -17.667625  12.994498  -2.932161  4.383627  2.883757  22.109375  2.613328  1.866435  -1.974679  0.966508  -0.921562  3.358985  2.509348  -2.647071  9.147405  2.509348  -2.647071  9.147406  1.908247  21.509824  8.619478  148.788889  19.920652  174.356925  -24.21001  17.054964  92.397473  29.059467  -31.32343  22.049647  8.372912  -6.197659  14.064694  74.21547  44.102142  36.951211  0.585771  2.966968  -22.289125  74.460728  -8.834113  16.121238  -4.56826  -0.917302  -1.028296  -3.427676  -0.680337  -0.778114  
0.0  101.685394  0.0  -0.372427  8.80052  -99.881602  11.475571  -23.57002  4.085375  -9.538592  15.780429  24.393958  0.261677  3.82183  1.249065  -17.39775  12.982514  -2.84182  4.10784  2.896219  22.14209  2.533332  1.924594  -1.938527  0.885002  -0.935256  3.339411  2.285883  -2.672533  9.096852  2.285882  -2.672533  9.096852  1.574051  21.621972  8.472301  148.401881  20.256222  174.2197  -24.403505  16.853991  92.054776  29.164771  -31.193193  21.991832  8.710735  -6.159831  14.181256  73.285593  44.461308  36.292922  1.385882  3.273003  -22.275614  74.663264  -8.60186  15.846874  -4.274568  -0.80883  -0.922632  -3.207102  -0.600206  -0.697661  
0.0  101.685394  0.0  -0.366936  9.00632  -99.919556  11.747705  -23.727377  4.197369  -9.940228  15.927806  24.085579  0.176695  3.713847  1.178475  -16.913709  12.924948  -2.650528  3.692218  2.937283  22.178058  2.328694  1.966826  -1.932051  0.795781  -0.94377  3.324966  2.041853  -2.683096  9.060831  2.041853  -2.683096  9.060832  1.073742  21.677916  8.274261  148.196647  20.430191  174.076738  -24.613445  16.630674  91.71564  29.219665  -31.003593  22.061978  8.995  -6.196087  14.226319  72.702332  44.788888  35.901565  1.893577  3.485366  -22.359239  74.809963  -8.418688  15.816082  -4.075255  -0.708801  -0.892194  -3.057445  -0.525681  -0.6739  
